<svg xmlns="http://www.w3.org/2000/svg" xmlns:xlink="http://www.w3.org/1999/xlink" version="1.1" id="Calque_1" x="0px" y="0px" width="100px" height="100px" viewBox="0 0 100 100" enable-background="new 0 0 100 100" xml:space="preserve">
<g>
	<g>
		<path d="M70.16,79H29.839c-3.466,0-6.715-1.137-9.148-3.514c-2.452-2.396-3.802-5.531-3.802-8.983    c0-1.387,0.228-2.695,0.643-3.854C17.692,62.204,18.115,62,18.589,62H81.41c0.475,0,0.897,0.248,1.058,0.693    c0.414,1.16,0.643,2.535,0.643,3.922c0,3.452-1.351,6.487-3.803,8.883C76.875,77.876,73.627,79,70.16,79z M19.423,64    c-0.188,1-0.289,1.674-0.289,2.518c0,2.844,1.11,5.479,3.126,7.45C24.271,75.933,26.963,77,29.839,77H70.16    c2.876,0,5.567-1.031,7.578-2.996c2.016-1.971,3.126-4.669,3.126-7.511c0-0.846-0.101-1.493-0.288-2.493H19.423z"/>
	</g>
	<g>
		<path d="M81.956,45H18.042c-0.594,0-1.085-0.048-1.121-0.642c-0.011-0.186-0.033-0.62-0.033-0.856    c0-7.269,5.93-13.305,12.95-13.305c1.721,0,3.438,0.405,5.035,1.083c1.075-2.866,2.96-5.395,5.4-7.265    c2.885-2.211,6.341-3.367,9.994-3.367c3.603,0,7.025,1.161,9.899,3.347c2.438,1.854,4.339,4.394,5.439,7.237    c1.382-0.497,2.908-0.747,4.553-0.747c3.449,0,6.706,1.399,9.169,3.939c2.438,2.514,3.781,5.81,3.781,9.278    c0,0.221-0.021,0.458-0.033,0.656C83.042,44.951,82.551,45,81.956,45z M19.135,43h61.728c-0.03-3-1.146-5.24-3.146-7.303    c-2.036-2.1-4.72-3.111-7.557-3.111c-1.775,0-3.365,0.415-4.726,1.085c-0.297,0.146-0.642,0.192-0.944,0.06    c-0.304-0.132-0.533-0.372-0.628-0.688c-1.799-5.979-7.389-10.146-13.594-10.146c-6.318,0-11.931,4.24-13.649,10.305    c-0.093,0.329-0.332,0.6-0.648,0.732s-0.675,0.114-0.975-0.051c-1.588-0.876-3.371-1.629-5.157-1.629    C24.077,32.254,19.203,37,19.135,43z"/>
	</g>
	<g>
		<path d="M50.03,55.184c-0.288,0-0.576-0.199-0.794-0.418C45.159,50.689,38.386,48,35.514,48H20.2c-0.62,0-1.123-0.38-1.123-1    s0.503-1,1.123-1h15.314c3.562,0,10.197,2.688,14.565,6.629C52.311,50.832,58.787,46,63.939,46h15.861c0.621,0,1.123,0.38,1.123,1    s-0.502,1-1.123,1H63.939c-5.363,0-13.096,6.752-13.173,6.82C50.554,55.004,50.292,55.184,50.03,55.184z"/>
	</g>
	<path d="M74.596,49.214H58.134c-1.223,0.622-2.402,1.344-3.447,2.041c0.062,0.083,0.124,0.167,0.184,0.253   c0.024-0.016,0.048-0.032,0.072-0.048h19.653c2.049,0,3.715,1.666,3.715,3.714s-1.666,3.715-3.715,3.715H25.404   c-2.049,0-3.716-1.667-3.716-3.715s1.667-3.714,3.716-3.714h19.395c0.068,0.038,0.134,0.075,0.201,0.113   c0.011-0.021,0.021-0.043,0.033-0.064c0.059-0.123,0.12-0.244,0.186-0.364c0.01-0.02,0.021-0.039,0.03-0.059   c-1.163-0.723-2.37-1.352-3.542-1.872H25.404c-3.287,0-5.961,2.674-5.961,5.96s2.674,5.96,5.961,5.96h49.191   c3.287,0,5.961-2.674,5.961-5.96S77.883,49.214,74.596,49.214z"/>
</g>
</svg>